PathFileType	4	(X/Y/Z)	C:/Users/opensim2020/Desktop/walking_exp_matlab/subject02_walking13_straight_01.trc																																																																																																																									
DataRate	CameraRate	NumFrames	NumMarkers	Units	OrigDataRate	OrigDataStartFrame	OrigNumFrames																																																																																																																					
100	100	5	41	mm	100	439	140																																																																																																																					
Frame#	Time	LFHD			RFHD			LBHD			RBHD			C7			T10			CLAV			STRN			RBAK			LSHO			LUPA			LELB			LFRM			LWRA			LWRB			LFIN			RSHO			RUPA			RELB			RFRM			RWRA			RWRB			RFIN			LASI			RASI			LPSI			RPSI			LTHI			LKNE			LTIB			LANK			LHEE			LTOE			RTHI			RKNE			RTIB			RANK			RHEE			RTOE			*39			*40		
		X1	Y1	Z1	X2	Y2	Z2	X3	Y3	Z3	X4	Y4	Z4	X5	Y5	Z5	X6	Y6	Z6	X7	Y7	Z7	X8	Y8	Z8	X9	Y9	Z9	X10	Y10	Z10	X11	Y11	Z11	X12	Y12	Z12	X13	Y13	Z13	X14	Y14	Z14	X15	Y15	Z15	X16	Y16	Z16	X17	Y17	Z17	X18	Y18	Z18	X19	Y19	Z19	X20	Y20	Z20	X21	Y21	Z21	X22	Y22	Z22	X23	Y23	Z23	X24	Y24	Z24	X25	Y25	Z25	X26	Y26	Z26	X27	Y27	Z27	X28	Y28	Z28	X29	Y29	Z29	X30	Y30	Z30	X31	Y31	Z31	X32	Y32	Z32	X33	Y33	Z33	X34	Y34	Z34	X35	Y35	Z35	X36	Y36	Z36	X37	Y37	Z37	X38	Y38	Z38	X39	Y39	Z39	X40	Y40	Z40	X41	Y41	Z41
																																																																																																																												
36	0.35	-513.27289	1735.36597	-1084.09473	-530.83563	1715.67212	-942.32867	-643.138	1662.86218	-1109.0802	-672.09558	1641.31934	-970.14148	-708.19684	1521.14722	-1035.76147	-762.03003	1244.70435	-1026.10449	-569.28357	1450.48328	-1048.21667	-517.11835	1280.0686	-1036.95911	-766.56378	1347.45801	-968.35706	-637.72131	1488.82605	-1218.99182	-666.10986	1284.08838	-1295.96338	-689.3266	1145.44849	-1298.94714	-703.40961	1016.12079	-1311.8866	-677.38055	882.00873	-1275.07117	-716.24133	893.60474	-1314.72156	-712.69812	827.24628	-1317.06885	-627.37982	1487.66113	-849.64984	-653.58752	1298.68677	-762.70612	-633.95459	1151.92712	-744.93774	-588.9491	1037.33875	-734.30646	-525.00793	920.90002	-764.78503	-569.22192	907.95465	-730.67621	-521.10352	854.79047	-731.9162	-527.43317	990.99078	-1165.07397	-533.86688	960.70435	-910.53375	-740.36292	1031.80359	-1087.60376	-747.7135	1024.93091	-972.53552	-549.8244	682.18604	-1222.59814	-555.29651	479.21622	-1189.875	-601.98596	288.89053	-1193.32312	-592.19092	66.89619	-1154.70032	-630.15521	39.33545	-1105.9436	-434.80597	33.55534	-1158.41504	-613.96539	658.5116	-830.67133	-614.21454	461.76642	-836.2168	-770.49139	367.41129	-841.86707	-922.13007	255.43333	-885.03326	-969.42285	243.6825	-952.10168	-897.55951	97.44339	-849.34637	-623.91907	1800.87939	-1005.49756	2845.37207	1034.10364	-3360.39893
37	0.36	-500.54791	1737.44214	-1085.271	-518.27679	1717.65186	-943.63574	-630.44153	1665.1803	-1110.78589	-659.87775	1643.48792	-971.8446	-695.67816	1523.20496	-1037.74573	-749.19818	1246.71692	-1028.56335	-556.70935	1452.68372	-1049.66333	-504.50949	1282.19336	-1038.52563	-754.31238	1349.42566	-971.11713	-624.24799	1491.5686	-1220.57544	-648.17401	1286.8894	-1298.93335	-668.16357	1147.38879	-1302.60889	-677.66968	1017.31396	-1315.10242	-647.93762	884.13611	-1276.59485	-686.33899	894.56799	-1317.57568	-680.03601	828.60022	-1319.96777	-615.52185	1489.6394	-851.55542	-643.0553	1300.90283	-764.86719	-624.69952	1153.94971	-747.10284	-582.35187	1038.64783	-736.11951	-520.76685	921.11353	-766.50763	-565.00171	909.07861	-731.85706	-517.5365	854.68921	-733.44104	-515.35748	992.76678	-1166.90686	-521.39935	964.27838	-911.35986	-727.88904	1033.90588	-1089.80371	-734.85516	1027.27527	-975.1496	-543.17804	682.37604	-1224.08899	-552.57233	479.01056	-1191.25867	-599.96613	288.79388	-1194.52515	-592.32178	66.86903	-1154.83435	-629.99298	38.64755	-1105.68481	-434.9418	33.491	-1158.63525	-593.32922	660.73938	-833.43658	-588.20508	464.77982	-839.65698	-743.10968	369.41745	-845.91528	-893.00946	254.91388	-889.4834	-940.63947	240.94003	-956.61359	-864.06995	98.72095	-852.00647	-611.47662	1803.02783	-1007.18842	2845.22021	1034.28162	-3360.41431
38	0.37	-487.8205	1739.302	-1086.32886	-506.18005	1719.10718	-944.81848	-617.70288	1667.30408	-1112.33752	-648.03973	1645.72595	-973.93878	-683.14966	1525.0885	-1039.67725	-736.45264	1248.56714	-1031.01208	-544.11981	1454.62549	-1051.11072	-491.87521	1284.11462	-1040.12793	-742.18036	1350.63855	-973.80322	-610.79681	1494.22729	-1222.07495	-630.45868	1289.81958	-1302.01868	-647.13885	1149.50366	-1306.08862	-651.7807	1019.11719	-1318.64807	-617.87799	887.49597	-1279.33948	-656.05872	896.14618	-1320.52417	-646.89801	830.37628	-1322.84998	-603.60284	1491.58582	-853.41669	-633.64355	1303.36121	-766.75354	-616.78674	1156.12939	-749.06964	-575.77234	1040.35205	-737.65363	-515.96759	921.47351	-767.39362	-560.56537	910.30664	-732.9845	-514.81409	854.69	-734.82257	-503.16025	994.51538	-1168.78027	-508.91504	967.94006	-912.55328	-715.39789	1035.76208	-1092.07275	-721.44995	1029.20215	-977.76501	-536.8161	682.40613	-1225.41138	-550.1781	478.83173	-1192.53198	-598.61749	288.83746	-1195.28906	-592.51422	67.0271	-1155.00769	-630.02209	38.80822	-1105.60437	-434.92502	33.45728	-1158.8136	-573.54077	663.02588	-836.06647	-562.59955	467.89404	-843.19067	-715.67975	370.65164	-850.34363	-863.38037	253.01022	-893.8197	-911.65088	237.00374	-960.62439	-828.94995	99.14784	-854.66199	-598.85211	1804.84265	-1008.42371	NaN	NaN	NaN
39	0.38	-475.12704	1740.97693	-1087.2655	-493.99078	1720.5343	-945.81635	-605.02948	1669.00842	-1113.86853	-635.29315	1647.2229	-975.43158	-670.54163	1526.68799	-1041.62659	-723.70355	1250.16504	-1033.43909	-531.58441	1456.37061	-1052.44165	-479.36249	1285.76453	-1041.74414	-729.14758	1352.07642	-976.37592	-597.53613	1496.77466	-1223.3938	-613.09985	1292.41016	-1304.47986	-626.03613	1151.63	-1309.91577	-626.02454	1020.8656	-1321.79675	-587.60657	890.90857	-1281.71777	-625.80591	897.74707	-1323.17883	-613.50464	832.72064	-1325.70886	-591.83063	1493.17676	-855.24823	-623.1853	1305.4989	-768.71667	-607.97223	1158.05359	-750.75861	-569.44379	1041.6427	-739.33966	-511.98352	921.49597	-768.9129	-556.43793	911.36932	-733.90491	-510.7121	854.77606	-736.14685	-491.21292	995.91534	-1170.50098	-496.37494	971.53766	-913.80273	-702.88245	1037.33167	-1094.26355	-708.34271	1031.05579	-980.00665	-530.789	682.19678	-1226.68884	-548.20679	478.73669	-1193.51685	-598.0451	289.13928	-1195.59399	-592.44366	67.02084	-1154.70959	-629.93127	39.00817	-1105.36218	-434.84604	33.28955	-1158.94775	-553.88831	665.36292	-838.45361	-537.56824	470.92065	-846.55231	-688.03845	370.95981	-854.5271	-833.20276	249.7321	-897.77679	-882.21356	231.57597	-964.35504	-792.39252	98.33023	-857.63129	-586.52063	1806.5238	-1009.7038	NaN	NaN	NaN
40	0.39	-462.46741	1742.40979	-1088.15259	-481.80402	1721.86365	-946.77625	-592.17883	1670.55017	-1115.10437	-623.22205	1648.30164	-977.15668	-657.97278	1528.03064	-1043.43848	-710.98456	1251.4928	-1035.80493	-518.99896	1457.89417	-1053.74866	-466.69046	1287.16748	-1043.49463	-717.03131	1352.96826	-978.86102	-584.36682	1498.89404	-1224.69104	-595.73474	1295.32141	-1307.22644	-605.03387	1153.74585	-1313.86584	-600.20233	1022.77136	-1325.06287	-557.11865	894.82935	-1284.20227	-595.25281	899.93982	-1326.04297	-579.80151	835.76221	-1328.59875	-579.875	1494.68225	-856.94751	-613.24701	1307.26355	-770.60626	-599.50708	1159.79968	-752.44165	-562.81287	1042.84912	-740.45386	-507.51776	921.45496	-770.01514	-551.81244	912.40784	-734.92023	-507.66229	854.8642	-737.34186	-479.392	997.05359	-1172.46082	-483.58212	974.95276	-915.64673	-690.3028	1038.59192	-1096.29419	-695.30188	1032.62927	-981.95209	-525.02875	681.84967	-1227.75183	-546.54407	478.78821	-1194.41089	-598.04144	289.60995	-1195.47339	-592.42267	67.25677	-1154.44104	-629.79462	39.25407	-1105.00977	-434.71884	33.19883	-1159.19495	-534.72406	667.81763	-840.69098	-512.46918	473.88013	-850.20081	-660.50598	370.43982	-858.41559	-802.5639	245.36133	-901.53192	-851.77161	224.51674	-967.7663	-754.80035	96.89297	-860.62598	-574.14026	1807.92896	-1010.77704	NaN	NaN	NaN
